<svg width="100%" height="100%" viewBox="0 0 24 24" fill="none" xmlns="http://www.w3.org/2000/svg">
  <path d="M4 2C3.44772 2 3 2.44772 3 3V21C3 21.5523 3.44772 22 4 22H9C9.55228 22 10 21.5523 10 21V12V3C10 2.44772 9.55228 2 9 2H4Z" fill="#4285F4"/>
  <path d="M10 12L16.5 4H21C21.5523 4 22 4.44772 22 5V6C22 6.55228 21.5523 7 21 7L14 14L10 12Z" fill="#EA4335"/>
  <path d="M10 12L15 17L18.5 21.5C18.89 21.9 19.5 22 20 22H21C21.5523 22 22 21.5523 22 21V19C22 18.4477 21.5523 18 21 18L10 12Z" fill="#FBBC05"/>
  <rect x="9.5" y="11.5" width="6.5" height="3" rx="1" fill="#34A853" />
</svg>
